<svg xmlns="http://www.w3.org/2000/svg" width="720" height="916.25"><path d="M337.5 2.563l334.807 117.825-52.905 438.657L337.145 714.18 53.432 556.943.545 118.303 337.5 2.563z" fill="#b3b3b3"/><path d="M33.937 143.653L338.282 39.87v637.245L83.227 535.96l-49.29-392.307z" fill="#af2b2d"/><path d="M634.737 145.527l-45.334 392.305-251.118 139.283V39.857l296.452 105.67z" fill="#df2e31"/><path d="M267.737 356.825l69.99-146.16 61.615 146.16H267.737zm-26.685 61.458H426.58l41.505 103.815 77.205 1.427L338.28 63.01 124.055 523.525h71.557l45.44-105.242z" fill="#f2f2f2"/><path d="M338.282 63.01l-.552 147.655-69.918 146.273h70.313l.157 61.25-97.225.095-45.442 105.26-73.873 1.37L338.282 63.01z" fill="#b3b3b3"/></svg>