<svg xmlns="http://www.w3.org/2000/svg" viewBox="0 0 169.53333 170.66667" height="170.667" width="169.533"><defs><clipPath id="a"><path d="M0 1280V0h1271.52v1280H0z"/></clipPath></defs><g clip-path="url(#a)" transform="matrix(.13333 0 0 -.13333 0 170.667)"><path d="M348.43 931.527l-82.727 82.733.352-598.006.984-27.949c.41-13.145 2.856-27.989 6.926-43.367L929.48 113.789l163.86 72.602.06.199-744.97 744.937" fill="#55c5a9"/><path d="M1093.34 186.391l-163.86-72.602-655.476 231.109c12.519-48.043 40.234-102.039 70.066-131.57L557.988.628 1033.64 0l59.76 186.59-.06-.199zM273.965 344.938l.039-.04c-.039.274-.176.575-.176.848 0-.273.027-.535.137-.808" fill="#72cfb9"/><path d="M265.703 1014.3L10.926 629.43C-10.242 606.82.273 560.18 34.375 525.816l147.09-148.312 92.5-32.566c-4.07 15.378-6.516 30.222-6.926 43.367l-.984 27.949-.352 598.006v.04" fill="#3a7fca"/><path d="M934.863 1006.58c-15.383 3.93-30.129 6.35-43.508 6.78l-29.531 1.02-596.121-.08 827.787-827.71h.06l72.7 164.019-231.387 655.971" fill="#0f80cc"/><path d="M1066.36 936.352c-30.05 30.289-83.34 57.812-131.465 70.198l231.355-655.941-72.7-164.019h-.06l177.65 56.738.38 487.078-205.16 205.946zm-132.251 70.388c.325-.08.571-.16.786-.19l-.032.03c-.183.08-.429.08-.754.16" fill="#4ba5e0"/><path d="M902.449 1098.52L754.18 1245.7c-34.285 33.97-80.95 44.53-103.496 23.42L265.703 1014.3l596.121.08 29.531-1.02c13.379-.43 28.125-2.85 43.508-6.78l-32.414 91.94" fill="#55c5a9"/></g></svg>