<svg xmlns="http://www.w3.org/2000/svg" width="416" height="286" viewBox="0 0 416 286"><path fill="#303F9F" d="M84.157 143l-41.279 71.5L84.157 286l41.279-71.5z"/><path fill="#3F51B5" d="M331.842 0l-41.281 71.5 41.281 71.5 41.279-71.5z"/><path fill="#7986CB" d="M373.121 71.5L249.278 286h82.564L414.4 143z"/><path fill="#FF4081" d="M249.278 0L84.157 286h82.564L331.842 0z"/><path fill="#536DFE" d="M84.157 0L1.596 143l41.282 71.5L166.721 0z"/><path fill="#FFF" fill-opacity=".2" d="M249.278 0l41.283 71.5L331.842 0z"/><path fill="#FFF" fill-opacity=".1" d="M208 71.5L249.278 0l41.283 71.5z"/><path fill="none" d="M208 71.5l41.278 71.5 41.283-71.5z"/><path fill-opacity=".1" d="M166.721 143L208 71.5l41.278 71.5z"/><path fill-opacity=".2" d="M166.721 143L208 214.5l41.278-71.5z"/><path fill-opacity=".3" d="M125.438 214.5l41.283-71.5L208 214.5z"/><path fill-opacity=".4" d="M125.438 214.5l41.283 71.5L208 214.5z"/><path fill-opacity=".5" d="M84.157 286l41.281-71.5 41.283 71.5z"/><path fill="#FFF" fill-opacity=".2" d="M84.157 0l41.281 71.5L166.721 0z"/><path fill="#FFF" fill-opacity=".1" d="M42.878 71.5L84.157 0l41.281 71.5z"/><path fill="none" d="M42.878 71.5L84.157 143l41.281-71.5z"/><path fill-opacity=".1" d="M1.598 143l41.28-71.5L84.157 143z"/><path fill-opacity=".2" d="M1.598 143l41.28 71.5L84.157 143z"/><path fill="none" d="M125.438 214.5L84.157 143l-41.279 71.5z"/><path fill-opacity=".2" d="M125.438 214.5L84.157 286l-41.279-71.5zM373.121 71.5L331.842 0l-41.281 71.5z"/><path fill="none" d="M373.121 71.5L331.842 143l-41.281-71.5z"/><path fill="#FFF" fill-opacity=".2" d="M331.842 143l41.279-71.5L414.4 143z"/><path fill="#FFF" fill-opacity=".1" d="M331.842 143l41.279 71.5L414.4 143z"/><path fill="none" d="M290.561 214.5l41.281-71.5 41.279 71.5z"/><path fill-opacity=".1" d="M290.561 214.5l41.281 71.5 41.279-71.5z"/><path fill-opacity=".2" d="M249.278 286l41.283-71.5 41.281 71.5z"/><path fill="none" d="M0-65h416v416H0z"/></svg>