<svg xmlns="http://www.w3.org/2000/svg" width="96" height="96" viewBox="0 0 96 96"><path fill="#8BC34A" d="M56.47 13.82c.17-.45.7-.82 1.18-.82h4.72c.48 0 .74.37.57.82L34.9 88.18c-.17.45-.7.82-1.19.82h-4.15c-.48 0-.74-.37-.57-.82l27.48-74.36zM89.2 13.82c.17-.45.7-.82 1.18-.82h4.72c.48 0 .74.37.57.82L67.63 88.18c-.17.45-.7.82-1.19.82H62.3c-.48 0-.74-.37-.57-.82L89.2 13.82z"/><path fill="#0F9d58" d="M34.28 88.18c.17.45-.09.82-.57.82h-4.14c-.48 0-1.02-.37-1.19-.82L.34 13.82c-.17-.45.08-.82.57-.82h4.72c.48 0 1.01.37 1.18.82l27.47 74.36zM43.5 39.99c-.17.45-.44.45-.61 0l-9.82-26.17c-.18-.45.08-.82.56-.82h4.72c.48 0 1.01.37 1.18.82l6.52 17.67c.17.45.17 1.19 0 1.64l-2.55 6.86zm9.08 10.77c.18-.45.46-.44.63.01l13.8 37.41c.17.45-.09.82-.57.82h-4.15c-.48 0-1.02-.37-1.19-.82L50.03 58.79c-.17-.45-.16-1.19.01-1.64l2.54-6.39z"/></svg>